<svg xmlns="http://www.w3.org/2000/svg" xmlns:xlink="http://www.w3.org/1999/xlink" width="1080" zoomAndPan="magnify" viewBox="0 0 810 1439.999935" height="1920" preserveAspectRatio="xMidYMid meet" version="1.0"><defs><clipPath id="a2ad740156"><path d="M 40.882812 253 L 769.132812 253 L 769.132812 1440 L 40.882812 1440 Z M 40.882812 253 " clip-rule="nonzero"/></clipPath><clipPath id="bef3c9b71f"><path d="M 118 330 L 769.132812 330 L 769.132812 1440 L 118 1440 Z M 118 330 " clip-rule="nonzero"/></clipPath></defs><g clip-path="url(#a2ad740156)"><path fill="#012657" d="M 1489.652344 1859.464844 C 1472.71875 1859.464844 1455.785156 1854.761719 1439.792969 1846.296875 C 1431.328125 1841.589844 1423.800781 1836.886719 1416.273438 1831.242188 L 1183.90625 1649.675781 L 951.539062 1831.242188 C 944.953125 1836.886719 936.488281 1841.589844 928.960938 1846.296875 C 894.152344 1864.167969 856.523438 1863.230469 823.597656 1843.472656 C 790.667969 1823.71875 771.855469 1789.847656 771.855469 1751.277344 L 771.855469 1156.71875 C 771.855469 1122.851562 786.90625 1093.6875 812.308594 1072.050781 L 1088.890625 856.617188 C 1145.335938 812.402344 1223.417969 812.402344 1279.863281 856.617188 L 1556.445312 1072.050781 C 1582.789062 1092.746094 1596.898438 1122.851562 1596.898438 1156.71875 L 1596.898438 1751.277344 C 1596.898438 1789.847656 1578.085938 1823.71875 1545.15625 1843.472656 C 1528.222656 1853.820312 1508.46875 1859.464844 1489.652344 1859.464844 Z M 136.839844 1159.539062 C 119.90625 1159.539062 102.972656 1154.835938 87.921875 1145.429688 C 57.816406 1127.554688 40.882812 1097.449219 40.882812 1062.644531 L 40.882812 545.226562 C 40.882812 515.121094 54.054688 488.78125 77.574219 469.964844 L 317.46875 282.753906 C 367.328125 244.183594 437.882812 244.183594 487.746094 282.753906 L 727.636719 470.90625 C 751.15625 488.78125 764.328125 516.0625 764.328125 546.167969 L 764.328125 1063.582031 C 764.328125 1098.390625 747.394531 1127.554688 717.289062 1145.429688 C 688.125 1163.304688 654.257812 1164.246094 623.214844 1148.25 C 616.628906 1144.488281 609.101562 1140.726562 603.457031 1135.082031 L 402.136719 978.914062 L 201.753906 1135.082031 C 195.167969 1140.726562 188.582031 1144.488281 181.058594 1148.25 C 166.945312 1155.777344 151.894531 1159.539062 136.839844 1159.539062 Z M 136.839844 1159.539062 " fill-opacity="1" fill-rule="evenodd"/></g><g clip-path="url(#bef3c9b71f)"><path fill="#c59346" d="M 1489.652344 1297.832031 C 1486.832031 1297.832031 1484.007812 1296.890625 1481.1875 1295.011719 C 1477.421875 1293.128906 1473.660156 1291.246094 1470.839844 1288.425781 L 1183.90625 1064.523438 L 897.914062 1289.367188 C 894.152344 1291.246094 891.332031 1294.070312 887.566406 1295.949219 C 881.921875 1298.773438 874.398438 1298.773438 868.753906 1295.011719 C 863.109375 1291.246094 860.285156 1285.601562 860.285156 1279.015625 L 860.285156 1157.660156 C 860.285156 1152.015625 863.109375 1146.371094 866.871094 1142.605469 L 1143.453125 927.171875 C 1167.914062 908.359375 1201.78125 908.359375 1226.242188 927.171875 L 1501.882812 1142.605469 C 1506.585938 1146.371094 1508.46875 1152.015625 1508.46875 1157.660156 L 1508.46875 1279.015625 C 1508.46875 1285.601562 1505.644531 1292.1875 1500 1295.011719 C 1496.238281 1296.890625 1493.417969 1297.832031 1489.652344 1297.832031 Z M 1489.652344 1533.964844 C 1486.832031 1533.964844 1484.007812 1533.023438 1481.1875 1532.082031 C 1477.421875 1530.199219 1473.660156 1527.378906 1470.839844 1525.496094 L 1183.90625 1300.65625 L 897.914062 1525.496094 C 894.152344 1527.378906 891.332031 1530.199219 887.566406 1532.082031 C 881.921875 1534.902344 874.398438 1534.902344 868.753906 1531.140625 C 863.109375 1527.378906 860.285156 1521.734375 860.285156 1515.148438 L 860.285156 1393.789062 C 860.285156 1388.144531 863.109375 1382.5 866.871094 1378.738281 L 1143.453125 1163.304688 C 1167.914062 1144.488281 1201.78125 1144.488281 1226.242188 1163.304688 L 1501.882812 1378.738281 C 1506.585938 1382.5 1508.46875 1388.144531 1508.46875 1393.789062 L 1508.46875 1515.148438 C 1508.46875 1521.734375 1505.644531 1528.320312 1500 1531.140625 C 1496.238281 1533.023438 1493.417969 1533.964844 1489.652344 1533.964844 Z M 1489.652344 1770.09375 C 1486.832031 1770.09375 1484.007812 1770.09375 1481.1875 1768.210938 C 1477.421875 1766.332031 1473.660156 1764.449219 1470.839844 1761.625 L 1183.90625 1537.726562 L 897.914062 1761.625 C 894.152344 1764.449219 891.332031 1766.332031 887.566406 1768.210938 C 881.921875 1771.035156 874.398438 1771.035156 868.753906 1767.269531 C 863.109375 1764.449219 860.285156 1757.863281 860.285156 1751.277344 L 860.285156 1629.921875 C 860.285156 1624.277344 863.109375 1618.632812 866.871094 1614.867188 L 1143.453125 1399.433594 C 1167.914062 1380.621094 1201.78125 1380.621094 1226.242188 1399.433594 L 1501.882812 1614.867188 C 1506.585938 1618.632812 1508.46875 1624.277344 1508.46875 1629.921875 L 1508.46875 1751.277344 C 1508.46875 1757.863281 1505.644531 1764.449219 1500 1767.269531 C 1496.238281 1769.152344 1493.417969 1770.09375 1489.652344 1770.09375 Z M 136.839844 876.371094 C 133.078125 876.371094 130.257812 875.433594 127.433594 873.550781 C 121.789062 869.789062 118.027344 864.144531 118.027344 857.558594 L 118.027344 752.191406 C 118.027344 746.546875 120.847656 740.902344 125.550781 737.140625 L 365.445312 549.929688 C 387.082031 532.054688 418.128906 532.054688 439.765625 549.929688 L 679.660156 737.140625 C 684.363281 740.902344 687.1875 746.546875 687.1875 752.191406 L 687.1875 857.558594 C 687.1875 864.144531 683.421875 870.726562 677.777344 873.550781 C 672.132812 877.3125 665.546875 877.3125 659.902344 874.492188 C 656.140625 872.609375 653.320312 870.726562 650.496094 867.90625 L 402.136719 674.109375 L 154.714844 867.90625 C 151.894531 870.726562 149.070312 872.609375 145.308594 874.492188 C 142.484375 875.433594 139.664062 876.371094 136.839844 876.371094 Z M 136.839844 1082.398438 C 133.078125 1082.398438 130.257812 1081.457031 127.433594 1079.578125 C 121.789062 1075.8125 118.027344 1070.167969 118.027344 1063.582031 L 118.027344 957.277344 C 118.027344 951.632812 120.847656 945.988281 125.550781 943.167969 L 365.445312 755.015625 C 387.082031 738.082031 418.128906 738.082031 439.765625 755.015625 L 679.660156 943.167969 C 684.363281 945.988281 687.1875 951.632812 687.1875 957.277344 L 687.1875 1063.582031 C 687.1875 1070.167969 683.421875 1075.8125 677.777344 1079.578125 C 672.132812 1082.398438 665.546875 1082.398438 659.902344 1079.578125 C 656.140625 1078.636719 653.320312 1075.8125 650.496094 1073.933594 L 402.136719 880.136719 L 154.714844 1073.933594 C 151.894531 1075.8125 148.132812 1077.695312 145.308594 1079.578125 C 142.484375 1081.457031 139.664062 1082.398438 136.839844 1082.398438 Z M 136.839844 670.347656 C 133.078125 670.347656 130.257812 669.40625 127.433594 667.523438 C 121.789062 664.703125 118.027344 658.117188 118.027344 651.53125 L 118.027344 546.167969 C 118.027344 540.519531 120.847656 534.875 125.550781 531.113281 L 365.445312 343.902344 C 387.082031 326.027344 418.128906 326.027344 439.765625 343.902344 L 679.660156 531.113281 C 684.363281 534.875 687.1875 540.519531 687.1875 546.167969 L 687.1875 651.53125 C 687.1875 658.117188 683.421875 664.703125 677.777344 667.523438 C 672.132812 671.285156 665.546875 671.285156 659.902344 668.464844 C 656.140625 666.582031 653.320312 664.703125 650.496094 662.820312 L 402.136719 469.023438 L 154.714844 662.820312 C 151.894531 664.703125 148.132812 666.582031 145.308594 668.464844 C 142.484375 670.347656 139.664062 670.347656 136.839844 670.347656 Z M 136.839844 670.347656 " fill-opacity="1" fill-rule="evenodd"/></g></svg>